<svg width="1985" height="1155" xmlns="http://www.w3.org/2000/svg" xmlns:xlink="http://www.w3.org/1999/xlink" overflow="hidden"><defs><clipPath id="clip0"><rect x="-2" y="0" width="1985" height="1155"/></clipPath></defs><g clip-path="url(#clip0)" transform="translate(2 0)"><path d="M990.5 542.5 990.5 578.093 1810.84 578.093 1810.84 613.686" stroke="#34599C" stroke-width="4.58333" stroke-miterlimit="8" fill="none" fill-rule="evenodd"/><path d="M990.5 542.5 990.5 578.093 1400.67 578.093 1400.67 613.686" stroke="#34599C" stroke-width="4.58333" stroke-miterlimit="8" fill="none" fill-rule="evenodd"/><path d="M991 542.5 991 613.686" stroke="#34599C" stroke-width="4.58333" stroke-miterlimit="8" fill="none" fill-rule="evenodd"/><path d="M990.669 542.5 990.669 578.093 580.5 578.093 580.5 613.686" stroke="#34599C" stroke-width="4.58333" stroke-miterlimit="8" fill="none" fill-rule="evenodd"/><path d="M990.839 542.5 990.839 578.093 170.5 578.093 170.5 613.686" stroke="#34599C" stroke-width="4.58333" stroke-miterlimit="8" fill="none" fill-rule="evenodd"/><rect x="821.5" y="372.5" width="338" height="170" stroke="#FFFFFF" stroke-width="4.58333" stroke-miterlimit="8" fill="#4472C4"/><text fill="#FFFFFF" font-family="Calibri,Calibri_MSFontService,sans-serif" font-weight="400" font-size="73" transform="matrix(1 0 0 1 875.519 438)">Junlong <tspan x="38.4771" y="80">Ruan</tspan></text><rect x="0.499836" y="613.5" width="339" height="170" stroke="#FFFFFF" stroke-width="4.58333" stroke-miterlimit="8" fill="#4472C4"/><text fill="#FFFFFF" font-family="Calibri,Calibri_MSFontService,sans-serif" font-weight="400" font-size="73" transform="matrix(1 0 0 1 78.2915 719)">About</text><rect x="410.5" y="613.5" width="339" height="170" stroke="#FFFFFF" stroke-width="4.58333" stroke-miterlimit="8" fill="#4472C4"/><text fill="#FFFFFF" font-family="Calibri,Calibri_MSFontService,sans-serif" font-weight="400" font-size="73" transform="matrix(1 0 0 1 474.505 719)">Gallery</text><rect x="821.5" y="613.5" width="338" height="170" stroke="#FFFFFF" stroke-width="4.58333" stroke-miterlimit="8" fill="#4472C4"/><text fill="#FFFFFF" font-family="Calibri,Calibri_MSFontService,sans-serif" font-weight="400" font-size="73" transform="matrix(1 0 0 1 942.069 678)">My <tspan x="-63.7542" y="80">resume</tspan></text><rect x="1231.5" y="613.5" width="339" height="170" stroke="#FFFFFF" stroke-width="4.58333" stroke-miterlimit="8" fill="#4472C4"/><text fill="#FFFFFF" font-family="Calibri,Calibri_MSFontService,sans-serif" font-weight="400" font-size="73" transform="matrix(1 0 0 1 1308.07 719)">Forms</text><rect x="1641.5" y="613.5" width="339" height="170" stroke="#FFFFFF" stroke-width="4.58333" stroke-miterlimit="8" fill="#4472C4"/><text fill="#FFFFFF" font-family="Calibri,Calibri_MSFontService,sans-serif" font-weight="400" font-size="73" transform="matrix(1 0 0 1 1697.43 719)">Process</text></g></svg>